# xmcd CD database file
#
# Track frame offsets:
#	150
#	22885
#	46495
#	68113
#	87877
#	107259
#	128260
#	150247
#	175125
#	195613
#	218238
#	235012
#
# Disc length: 3362 seconds
#
# Revision: 0
# Processed by: cddbd v1.5.2PL0 Copyright (c) Steve Scherf et al.
# Submitted via: Feurio! 1.68 - http://www.feurio.com
#
DISCID=860d200c
DTITLE=Emmylou Harris - Red Dirt Girl
DYEAR=1900
DGENRE=
TTITLE0=The Pearls
TTITLE1=Michelangelo
TTITLE2=I dont't wanna talk about it now
TTITLE3=Tragedy
TTITLE4=Red Dirt Girl
TTITLE5=My Baby needs a shepherd
TTITLE6=Bang th drum slowly
TTITLE7=J'ai fait tout
TTITLE8=One big love
TTITLE9=Hour of gold
TTITLE10=My Antonia
TTITLE11=Bow from Tupelo
EXTD=
EXTT0=
EXTT1=
EXTT2=
EXTT3=
EXTT4=
EXTT5=
EXTT6=
EXTT7=
EXTT8=
EXTT9=
EXTT10=
EXTT11=
PLAYORDER=
